<?xml version="1.0" encoding="UTF-8"?>
<svg xmlns="http://www.w3.org/2000/svg" xmlns:xlink="http://www.w3.org/1999/xlink" width="32px" height="32px" viewBox="0 0 32 32" version="1.1">
<g id="surface1">
<path style=" stroke:none;fill-rule:nonzero;fill:rgb(60.000002%,61.56863%,70.588237%);fill-opacity:1;" d="M 11.496094 2.097656 C 7.09375 3.671875 4.820312 5.710938 2.503906 10.070312 C 0.929688 13.175781 0.929688 18.601562 2.597656 22.167969 C 4.082031 25.320312 6.445312 27.734375 9.644531 29.402344 C 13.121094 31.210938 18.359375 31.210938 22.066406 29.492188 C 25.21875 28.011719 27.628906 25.644531 29.300781 22.449219 C 31.105469 18.972656 31.105469 13.730469 29.390625 10.023438 C 26.191406 3.164062 18.265625 -0.3125 11.496094 2.097656 Z M 20.628906 8.492188 C 21.324219 10.210938 21.1875 10.996094 20.304688 10.996094 C 19.84375 10.996094 17.386719 11.507812 14.835938 12.109375 C 12.285156 12.757812 10.015625 13.082031 9.828125 12.898438 C 9.644531 12.710938 9.363281 11.785156 9.179688 10.859375 C 8.949219 9.234375 8.949219 9.1875 10.894531 8.679688 C 14 7.84375 16.550781 7.382812 18.453125 7.335938 C 19.933594 7.289062 20.257812 7.472656 20.628906 8.492188 Z M 23.132812 13.40625 C 23.550781 13.964844 23.875 14.890625 23.875 15.402344 C 23.875 16.1875 23.410156 16.421875 20.769531 16.929688 C 19.007812 17.253906 15.390625 18.277344 12.609375 19.203125 C 9.875 20.128906 7.511719 20.777344 7.371094 20.59375 C 7.234375 20.453125 7 19.527344 6.863281 18.507812 L 6.628906 16.699219 L 9.320312 15.726562 C 13.769531 14.148438 18.589844 12.898438 22.113281 12.433594 C 22.300781 12.386719 22.761719 12.851562 23.132812 13.40625 Z M 23.410156 19.296875 C 24.523438 21.382812 24.058594 22.03125 20.628906 23.050781 C 18.867188 23.558594 16.597656 24.300781 15.625 24.625 C 13.351562 25.460938 12.65625 24.996094 12.5625 22.773438 L 12.515625 21.011719 L 16.921875 19.710938 C 22.253906 18.183594 22.761719 18.183594 23.410156 19.296875 Z M 23.410156 19.296875 "/>
</g>
</svg>
